# xmcd
#
# Track frame offsets:
#	150
#	13968
#	21320
#	28672
#	36024
#	43376
#	50757
#	58109
#	82943
#	90338
#	114093
#	148237
#	156287
#	163639
#	187387
#	194739
#
# Disc length: 2818 seconds
#
# Revision: 0
# Processed by: cddbd v1.5.2PL0 Copyright (c) Steve Scherf et al.
# Submitted via: dBpowerAMP V4.0
#
DISCID=e50b0010
DTITLE=Hermana Glenda - Consuela a mi pueblo
DYEAR=2004
DGENRE=Blues
TTITLE0=DATA
TTITLE1=DATA
TTITLE2=DATA
TTITLE3=DATA
TTITLE4=DATA
TTITLE5=DATA
TTITLE6=DATA
TTITLE7=DATA
TTITLE8=DATA
TTITLE9=DATA
TTITLE10=DATA
TTITLE11=DATA
TTITLE12=DATA
TTITLE13=DATA
TTITLE14=DATA
TTITLE15=Estoy a tu puerta y llamo
EXTD=Estoy a tu puerta y llamo
EXTT0=
EXTT1=
EXTT2=
EXTT3=
EXTT4=
EXTT5=
EXTT6=
EXTT7=
EXTT8=
EXTT9=
EXTT10=
EXTT11=
EXTT12=
EXTT13=
EXTT14=
EXTT15=
PLAYORDER=
